<?xml version="1.0" encoding="UTF-8"?>
<svg xmlns="http://www.w3.org/2000/svg" viewBox="0 0 1088 592" width="1088" height="592" role="img" aria-label="TIPS logo">
  <title>TIPS logo</title>
  <path d="M271.0,168.0 L269.0,170.0 L269.0,503.0 L272.0,506.0 L369.0,505.0 L371.0,503.0 L371.0,171.0 L369.0,168.0 Z M849.0,174.0 L831.0,183.0 L810.0,199.0 L799.0,212.0 L790.0,227.0 L783.0,249.0 L782.0,274.0 L785.0,291.0 L793.0,310.0 L800.0,320.0 L812.0,332.0 L828.0,343.0 L842.0,350.0 L874.0,361.0 L944.0,378.0 L961.0,385.0 L974.0,396.0 L978.0,404.0 L979.0,415.0 L974.0,428.0 L967.0,435.0 L958.0,440.0 L935.0,445.0 L917.0,445.0 L890.0,439.0 L877.0,431.0 L870.0,423.0 L866.0,415.0 L863.0,397.0 L776.0,397.0 L776.0,411.0 L779.0,427.0 L791.0,455.0 L799.0,466.0 L822.0,486.0 L843.0,497.0 L874.0,506.0 L906.0,510.0 L955.0,509.0 L986.0,503.0 L1013.0,493.0 L1028.0,484.0 L1045.0,469.0 L1060.0,445.0 L1066.0,423.0 L1067.0,400.0 L1064.0,380.0 L1057.0,363.0 L1048.0,350.0 L1038.0,340.0 L1024.0,330.0 L1005.0,320.0 L980.0,311.0 L910.0,294.0 L888.0,285.0 L877.0,275.0 L874.0,269.0 L873.0,257.0 L877.0,246.0 L887.0,236.0 L905.0,229.0 L931.0,228.0 L943.0,230.0 L961.0,238.0 L974.0,252.0 L978.0,262.0 L980.0,276.0 L1066.0,276.0 L1064.0,254.0 L1054.0,225.0 L1039.0,203.0 L1025.0,190.0 L995.0,173.0 L973.0,166.0 L941.0,161.0 L907.0,161.0 L874.0,166.0 Z M694.0,198.0 L665.0,179.0 L637.0,168.0 L598.0,161.0 L554.0,162.0 L533.0,166.0 L514.0,172.0 L489.0,184.0 L462.0,204.0 L441.0,227.0 L426.0,251.0 L416.0,274.0 L411.0,292.0 L407.0,318.0 L408.0,571.0 L414.0,570.0 L532.0,506.0 L566.0,510.0 L593.0,510.0 L620.0,506.0 L648.0,497.0 L670.0,486.0 L699.0,465.0 L721.0,441.0 L737.0,416.0 L750.0,382.0 L756.0,343.0 L755.0,309.0 L750.0,284.0 L735.0,247.0 L718.0,222.0 Z M550.0,336.0 L553.0,333.0 L610.0,333.0 L613.0,336.0 L608.0,353.0 L598.0,363.0 L589.0,367.0 L579.0,368.0 L568.0,365.0 L556.0,355.0 L551.0,345.0 Z M654.0,301.0 L667.0,301.0 L676.0,305.0 L686.0,314.0 L691.0,325.0 L691.0,339.0 L687.0,348.0 L677.0,358.0 L664.0,363.0 L652.0,362.0 L640.0,356.0 L633.0,348.0 L629.0,339.0 L629.0,325.0 L634.0,314.0 L644.0,305.0 Z M496.0,301.0 L509.0,301.0 L522.0,307.0 L530.0,316.0 L534.0,327.0 L534.0,337.0 L529.0,349.0 L518.0,359.0 L507.0,363.0 L494.0,362.0 L484.0,357.0 L475.0,347.0 L471.0,334.0 L472.0,324.0 L476.0,315.0 L485.0,306.0 Z M20.0,80.0 L20.0,376.0 L26.0,411.0 L35.0,435.0 L53.0,463.0 L68.0,478.0 L84.0,489.0 L102.0,498.0 L119.0,503.0 L142.0,506.0 L232.0,505.0 L233.0,406.0 L165.0,405.0 L149.0,397.0 L137.0,381.0 L133.0,360.0 L133.0,262.0 L135.0,260.0 L232.0,260.0 L233.0,168.0 L135.0,167.0 L133.0,165.0 L133.0,48.0 Z M317.0,20.0 L297.0,27.0 L282.0,40.0 L273.0,58.0 L272.0,79.0 L278.0,96.0 L290.0,110.0 L309.0,119.0 L325.0,121.0 L337.0,119.0 L349.0,114.0 L364.0,101.0 L373.0,83.0 L374.0,61.0 L366.0,42.0 L353.0,29.0 L335.0,21.0 Z" fill="#2F55F5" fill-rule="evenodd"/>
</svg>
