<svg xmlns="http://www.w3.org/2000/svg" viewBox="0 0 128 128" role="img" aria-label="TIPS">
    <rect width="128" height="128" rx="26" fill="#FFFFFF"/>
    <g fill="#3A5BEF">
        <path d="M15 39 L30 35 L30 50 L43 50 L43 64 L30 64 L30 72 C30 77 32 79 37 79 L43 79 L43 88 L31 88 C21 88 15 82 15 72 Z"/>
        <circle cx="55" cy="35" r="8"/>
        <path d="M48 50 H62 V88 H48 Z"/>
        <path d="M75 50 C88 50 98 59 98 71 C98 83 88 91 75 91 C71 91 67 90 64 89 L48 98 V71 C48 59 62 50 75 50 Z"/>
        <path d="M103 76 C104 84 110 91 122 91 C124 91 126 91 128 90 V72 C125 69 120 67 113 65 C107 64 104 62 104 59 C104 56 107 54 112 54 C118 54 121 57 122 63 H128 V42 C124 39 119 38 112 38 C99 38 91 45 91 56 C91 66 98 71 112 74 C119 76 123 78 123 82 C123 86 119 88 113 88 C107 88 104 84 103 76 Z"/>
    </g>
    <g fill="#FFFFFF">
        <circle cx="69" cy="71" r="3"/>
        <circle cx="82" cy="71" r="3"/>
        <path d="M74 71 C75 75 77 76 79 76 C81 76 83 75 84 71 Z"/>
    </g>
</svg>
